HIERARCHY
ROOT Hips
{
	OFFSET -14.64140 90.27770 -84.91600
	CHANNELS 6 Xposition Yposition Zposition Zrotation Xrotation Yrotation
	JOINT Spine
	{
		OFFSET 0.00000 13.20850 -1.60436
		CHANNELS 3 Zrotation Xrotation Yrotation
		JOINT Spine1
		{
			OFFSET 0.00000 8.61716 0.00000
			CHANNELS 3 Zrotation Xrotation Yrotation
			JOINT Spine2
			{
				OFFSET 0.00000 8.61717 0.00000
				CHANNELS 3 Zrotation Xrotation Yrotation
				JOINT Spine3
				{
					OFFSET 0.00000 8.61717 0.00000
					CHANNELS 3 Zrotation Xrotation Yrotation
					JOINT Neck
					{
						OFFSET 0.00000 11.07920 1.10792
						CHANNELS 3 Zrotation Xrotation Yrotation
						JOINT Neck1
						{
							OFFSET 0.00000 7.08032 0.00000
							CHANNELS 3 Zrotation Xrotation Yrotation
							JOINT Head
							{
								OFFSET 0.00000 7.08031 0.00000
								CHANNELS 3 Zrotation Xrotation Yrotation
								End site
								{
									OFFSET 0.00000 0.00000 0.00000
								}
							}
						}
					}
					JOINT RightShoulder
					{
						OFFSET -0.01000 7.91373 5.19711
						CHANNELS 3 Zrotation Xrotation Yrotation
						JOINT RightArm
						{
							OFFSET -18.41580 0.00000 0.00000
							CHANNELS 3 Zrotation Xrotation Yrotation
							JOINT RightForeArm
							{
								OFFSET -29.11090 0.00000 0.00000
								CHANNELS 3 Zrotation Xrotation Yrotation
								JOINT RightHand
								{
									OFFSET -24.65040 0.00000 0.00000
									CHANNELS 3 Zrotation Xrotation Yrotation
									JOINT RightHandThumb1
									{
										OFFSET -5.35114 -0.85590 3.97906
										CHANNELS 3 Zrotation Xrotation Yrotation
										JOINT RightHandThumb2
										{
											OFFSET -4.52789 0.00000 0.00000
											CHANNELS 3 Zrotation Xrotation Yrotation
											JOINT RightHandThumb3
											{
												OFFSET -2.46976 0.00000 0.00000
												CHANNELS 3 Zrotation Xrotation Yrotation
												End site
												{
													OFFSET 0.00000 0.00000 0.00000
												}
											}
										}
									}
									JOINT RightHandIndex1
									{
										OFFSET -14.26970 0.00000 2.88139
										CHANNELS 3 Zrotation Xrotation Yrotation
										JOINT RightHandIndex2
										{
											OFFSET -5.48836 0.00000 0.00000
											CHANNELS 3 Zrotation Xrotation Yrotation
											JOINT RightHandIndex3
											{
												OFFSET -3.01859 0.00000 0.00000
												CHANNELS 3 Zrotation Xrotation Yrotation
												End site
												{
													OFFSET 0.00000 0.00000 0.00000
												}
											}
										}
									}
									JOINT RightHandMiddle1
									{
										OFFSET -14.26970 0.00000 -0.09147
										CHANNELS 3 Zrotation Xrotation Yrotation
										JOINT RightHandMiddle2
										{
											OFFSET -6.17441 0.00000 0.00000
											CHANNELS 3 Zrotation Xrotation Yrotation
											JOINT RightHandMiddle3
											{
												OFFSET -3.56743 0.00000 0.00000
												CHANNELS 3 Zrotation Xrotation Yrotation
												End site
												{
													OFFSET 0.00000 0.00000 0.00000
												}
											}
										}
									}
									JOINT RightHandRing1
									{
										OFFSET -12.69180 0.00000 -3.06433
										CHANNELS 3 Zrotation Xrotation Yrotation
										JOINT RightHandRing2
										{
											OFFSET -5.62556 0.00000 0.00000
											CHANNELS 3 Zrotation Xrotation Yrotation
											JOINT RightHandRing3
											{
												OFFSET -3.56744 0.00000 0.00000
												CHANNELS 3 Zrotation Xrotation Yrotation
												End site
												{
													OFFSET 0.00000 0.00000 0.00000
												}
											}
										}
									}
									JOINT RightHandPinky1
									{
										OFFSET -11.11390 0.00000 -6.03719
										CHANNELS 3 Zrotation Xrotation Yrotation
										JOINT RightHandPinky2
										{
											OFFSET -4.52789 0.00000 0.00000
											CHANNELS 3 Zrotation Xrotation Yrotation
											JOINT RightHandPinky3
											{
												OFFSET -2.46976 0.00000 0.00000
												CHANNELS 3 Zrotation Xrotation Yrotation
												End site
												{
													OFFSET 0.00000 0.00000 0.00000
												}
											}
										}
									}
								}
							}
						}
					}
					JOINT LeftShoulder
					{
						OFFSET 0.01000 7.91373 5.19711
						CHANNELS 3 Zrotation Xrotation Yrotation
						JOINT LeftArm
						{
							OFFSET 18.41580 0.00000 0.00000
							CHANNELS 3 Zrotation Xrotation Yrotation
							JOINT LeftForeArm
							{
								OFFSET 29.11090 0.00000 0.00000
								CHANNELS 3 Zrotation Xrotation Yrotation
								JOINT LeftHand
								{
									OFFSET 24.65040 0.00000 0.00000
									CHANNELS 3 Zrotation Xrotation Yrotation
									JOINT LeftHandThumb1
									{
										OFFSET 5.35114 -0.85590 3.97906
										CHANNELS 3 Zrotation Xrotation Yrotation
										JOINT LeftHandThumb2
										{
											OFFSET 4.52789 0.00000 0.00000
											CHANNELS 3 Zrotation Xrotation Yrotation
											JOINT LeftHandThumb3
											{
												OFFSET 2.46977 0.00000 0.00000
												CHANNELS 3 Zrotation Xrotation Yrotation
												End site
												{
													OFFSET 0.00000 0.00000 0.00000
												}
											}
										}
									}
									JOINT LeftHandIndex1
									{
										OFFSET 14.26970 0.00000 2.88139
										CHANNELS 3 Zrotation Xrotation Yrotation
										JOINT LeftHandIndex2
										{
											OFFSET 5.48836 0.00000 0.00000
											CHANNELS 3 Zrotation Xrotation Yrotation
											JOINT LeftHandIndex3
											{
												OFFSET 3.01859 0.00000 0.00000
												CHANNELS 3 Zrotation Xrotation Yrotation
												End site
												{
													OFFSET 0.00000 0.00000 0.00000
												}
											}
										}
									}
									JOINT LeftHandMiddle1
									{
										OFFSET 14.26970 0.00000 -0.09147
										CHANNELS 3 Zrotation Xrotation Yrotation
										JOINT LeftHandMiddle2
										{
											OFFSET 6.17440 0.00000 0.00000
											CHANNELS 3 Zrotation Xrotation Yrotation
											JOINT LeftHandMiddle3
											{
												OFFSET 3.56744 0.00000 0.00000
												CHANNELS 3 Zrotation Xrotation Yrotation
												End site
												{
													OFFSET 0.00000 0.00000 0.00000
												}
											}
										}
									}
									JOINT LeftHandRing1
									{
										OFFSET 12.69180 0.00000 -3.06433
										CHANNELS 3 Zrotation Xrotation Yrotation
										JOINT LeftHandRing2
										{
											OFFSET 5.62556 0.00000 0.00000
											CHANNELS 3 Zrotation Xrotation Yrotation
											JOINT LeftHandRing3
											{
												OFFSET 3.56744 0.00000 0.00000
												CHANNELS 3 Zrotation Xrotation Yrotation
												End site
												{
													OFFSET 0.00000 0.00000 0.00000
												}
											}
										}
									}
									JOINT LeftHandPinky1
									{
										OFFSET 11.11390 0.00000 -6.03719
										CHANNELS 3 Zrotation Xrotation Yrotation
										JOINT LeftHandPinky2
										{
											OFFSET 4.52789 0.00000 0.00000
											CHANNELS 3 Zrotation Xrotation Yrotation
											JOINT LeftHandPinky3
											{
												OFFSET 2.46976 0.00000 0.00000
												CHANNELS 3 Zrotation Xrotation Yrotation
												End site
												{
													OFFSET 0.00000 0.00000 0.00000
												}
											}
										}
									}
								}
							}
						}
					}
					JOINT pCube4
					{
						OFFSET 0.00000 10.91090 1.10792
						CHANNELS 3 Zrotation Xrotation Yrotation
						End site
						{
							OFFSET 0.00000 0.00000 0.00000
						}
					}
				}
			}
		}
	}
	JOINT RightUpLeg
	{
		OFFSET -9.98441 0.00000 0.00000
		CHANNELS 3 Zrotation Xrotation Yrotation
		JOINT RightLeg
		{
			OFFSET 0.00000 -42.11790 0.00000
			CHANNELS 3 Zrotation Xrotation Yrotation
			JOINT RightFoot
			{
				OFFSET 0.00000 -45.00020 -0.00001
				CHANNELS 3 Zrotation Xrotation Yrotation
				JOINT RightForeFoot
				{
					OFFSET 0.00000 -3.74820 0.00000
					CHANNELS 3 Zrotation Xrotation Yrotation
					JOINT RightToeBase
					{
						OFFSET 0.00000 0.06325 14.43120
						CHANNELS 3 Zrotation Xrotation Yrotation
						End site
						{
							OFFSET 0.00000 0.00000 0.00000
						}
					}
				}
			}
		}
	}
	JOINT LeftUpLeg
	{
		OFFSET 9.98441 0.00000 0.00000
		CHANNELS 3 Zrotation Xrotation Yrotation
		JOINT LeftLeg
		{
			OFFSET 0.00000 -42.11800 0.00000
			CHANNELS 3 Zrotation Xrotation Yrotation
			JOINT LeftFoot
			{
				OFFSET 0.00000 -45.00070 0.00000
				CHANNELS 3 Zrotation Xrotation Yrotation
				JOINT LeftForeFoot
				{
					OFFSET 0.00000 -3.74824 0.00000
					CHANNELS 3 Zrotation Xrotation Yrotation
					JOINT LeftToeBase
					{
						OFFSET 0.00000 0.06325 14.43110
						CHANNELS 3 Zrotation Xrotation Yrotation
						End site
						{
							OFFSET 0.00000 0.00000 0.00000
						}
					}
				}
			}
		}
	}
}
MOTION
Frames: 4
Frame Time: 0.050000
0.018081820016626043 0.03645167556890261 -0.04066792511868888 -0.04835091643260305 0.00366630011252287 -0.019208301580256375 -3.4716925651435484 -0.6017526044121456 -0.6006499883764213 -1.0681554037287269 3.8075933761000402 0.4423869131098616 -1.3759962335439628 -1.8941883343318364 -0.9135536161600799 0.14824010675774862 0.4949209752547405 -0.8777228245604959 0.12041501702790487 12.444451303083099 0.40500070875767846 0.27008398908167347 -0.1347768111831486 -0.9389514630249719 0.29508441842527916 -14.938974348248172 -0.08526275140817961 -4.961395642017641 1.5916363765853938 -13.973035081739761 64.46924127801663 21.272788048023664 12.85992591077119 5.73874752587922 2.1555304885455535 62.39273003701308 15.422226554946057 -0.267176037260371 -2.5967821787398475 4.485854564244766 -0.12766005861465968 -1.634714490467421 -0.014885707718134333 0.030929487778763583 -56.28206644552366 -0.02655900837488299 0.031167352873934247 -56.25226636758417 -38.75058510003794 0.04179154574483849 -0.04428518434657552 -0.0026532357110811734 0.013863204162223334 0.023901693012460583 0.043119652451657324 0.009574966950617906 -0.03153588801853991 -36.664378331695325 -0.0061731736790743156 -0.005065998195047728 -0.04773165121341509 0.011874228578600427 0.011747470741421727 -0.007486589152843111 0.02863485969158196 -0.0010127976436156525 -19.799432861699934 -0.014117273644205043 -0.03316739428188088 0.04807185770397745 -0.013597045700502762 -0.021700437744985642 0.0278884401474651 -0.046278667214611505 0.0364021888804387 24.085013777194465 -0.03663016564441581 -0.028167583424147685 28.88252716902598 0.027782518569572735 0.02779395144509567 28.81843197558481 -0.0020900076069533223 -0.025236078974414582 5.3973534398800185 1.19888886171483 12.574500161539273 -70.11346750602313 27.968565612924408 -10.963511741681515 -44.77527728911074 3.016883326458573 -80.29489719293227 -5.603933240574339 0.6966339996051538 -0.6927537889964377 -0.4610762027485256 0.07860080382379533 -8.13935285710332 0.04141759986156968 -0.0005912848155327711 44.543692094608524 0.01987390555857224 -0.028783755971184807 44.55257522454506 12.445980549706874 0.012560211410480625 0.017981507262547665 0.006702070176960107 0.013159370470754392 -0.009684246000559484 -0.01732568762479002 -0.01883265456868431 -0.01885146549828343 11.116827589115102 -0.03234784093162746 -0.026241528246521543 -0.009943834378802951 -0.026626657859234754 0.027829833119016212 -0.04412148528448015 -0.0005802534625358739 0.02256684769756287 4.768314978091976 0.020238735621277763 0.02587876832656666 0.023491678663989546 -0.035472013979586936 0.008450658916531711 -0.038628099119673034 -0.028776166209733632 0.01716802428637206 -5.647863604370661 0.04899787715216906 0.028491936776791654 -6.725541504411143 -0.030128731943416597 0.01988423768440711 -6.710707797072175 -0.002907349366617458 0.03577747076833066 -0.030848491565828636 0.00977968117500674 -0.021397398747092077 8.021612125705856 3.4518032742586175 -19.184678006449495 0.0448065195700857 10.419604750280824 -0.0006127259967545866 -5.586310027912733 -15.687767044450865 3.1564784129446197 0.0009360772207707953 -0.023206303522567702 -0.020997327992808686 0.036830411619380915 4.732412410322741 0.007740419393876938 12.434360434364415 -8.249828685137173 6.855825143860399 -0.015406029893318312 46.374738975135486 0.024723099137899912 -4.332830241303291 -14.762565492943843 -3.8526008243744605 0.015413465183045377 0.002655024024177797 0.01030781798251045 0.03040937033576336 -10.794079777471715 -0.02797304495911313 
0.014203850971460772 0.024672531598455005 0.04511489987850774 0.03511640325917136 -0.012907729003057514 -0.04222794997842447 -3.43431563947734 -0.6283541205001191 -0.6669237022455159 -1.1137819331094638 3.722248160952324 0.39033116225275416 -1.345388094786311 -1.9030409913090969 -0.9142222010403326 0.06843933771410972 0.5117669718029665 -0.8309872160878411 -0.05227330005594416 12.54624035035523 0.7300444618581388 0.20360475467694875 -0.08382928284170621 -0.10833040496412581 0.20902395967772205 -14.999922169321277 0.024571587930634818 -4.860975227020499 1.6001633799644592 -13.976565875385793 65.10089791404145 22.056374016979746 11.952894869149388 5.891319811151856 2.550221924513867 62.723428663291 15.533856877705118 -0.23490465012018236 -2.495108068498484 4.553478756875961 -0.11936878008287381 -1.6099861363147945 0.007495950315954821 0.01442103855998249 -56.2499811332605 -0.02303672743447569 -0.027041528026847412 -56.20558626820684 -38.735328013288246 0.042237012007849475 -0.04527224014191773 0.015915020200376065 -0.03151971853907984 -0.011669177551138233 0.01737249172004176 0.025447135025468415 0.03126702297932342 -36.67502455986654 0.014623418759330254 -0.007965634153103522 -0.008456477154562488 0.006008418140177069 -0.043819680630449845 0.019366695863403713 0.01443577330299389 0.02984445863763256 -19.745071493836072 0.03535793570320259 0.02366752245016165 0.02321045933667076 0.00884390331443437 -0.03800160876037354 -0.017150918984401 -0.030010467151812485 0.04138643397302838 24.059531101454198 -0.038780384849542715 -0.025656701873230513 28.908870858075353 -0.03726752202580622 -0.0226842380136173 28.845248266868037 0.014345862902358784 0.03238995767939806 5.632253702711196 1.1762772239752308 12.621799476252594 -70.40041977946844 28.111748671859814 -11.010706823605586 -44.32088983349212 3.125138392212324 -80.22373010569038 -6.212385942769833 0.5723878068584454 -0.6926333664789444 -0.43169555910821955 0.061409975359786366 -8.105128790218512 0.006411045741472972 -0.04999811248398919 44.59959358524123 -0.022284518639683042 0.002307305437800843 44.60674957147949 12.47317425583957 -0.029306452829322552 0.013021589928834055 0.016733873663945516 -0.009917522358068526 0.035348059753926485 0.004964423294403017 -0.005837450639443883 0.03687122294904076 11.134832914652586 -0.027822093144343734 0.019076106264543435 0.03603699512301129 0.04091893988511827 0.015711006136387647 0.02244224036195662 0.004853067697228675 0.031027726357267034 4.723099668550955 0.029472859024583277 -0.00016668833439324282 -0.008700600417599168 0.007431606791002874 0.002267154580746097 0.029683108730524543 -0.002308457606671239 -0.0008658828909309515 -5.63644838243947 0.0022058829967509875 -0.019547512469141277 -6.6923277950948945 0.013508058387201484 -0.029899620777511904 -6.741288296966213 0.0049027168878082615 -0.018558490841678148 0.03092724546648798 -0.031694207550526286 -0.04184934802606782 8.017349416429218 3.483389401794154 -19.20407904904283 -0.029387700414696998 10.40044310490695 0.045678745004788315 -5.644324008265322 -15.659896232475985 3.218079808337914 0.03943115449815494 0.02385077851878264 0.03745210416908722 -0.029363659599494274 4.72774580875517 -0.021508239954074273 12.486426809547579 -8.278052147595512 6.858527320934642 -0.0317372877024623 46.362672022693346 0.013766555468951065 -4.360923372262053 -14.784823093892342 -3.826175434509607 0.0011013530601502995 0.043440845781786974 -0.04663297986461543 -0.011013567191085807 -10.721308210021439 -0.01388076488108667 
0.021710136932894385 -0.04372824583441668 -0.016800302048431248 -0.0010580312562551827 0.005620927594328477 0.008932627134542702 -3.3192772440366385 -0.4901346771983142 -0.6731991473219865 -1.0679307688399928 3.7226286513264473 0.39379534907004254 -1.2671486281677338 -1.9068245926719098 -1.0688156444937162 0.00047883019738662047 0.5159055002208395 -0.827059912263258 -0.23442928570721616 12.487465542247271 1.1149578828872966 0.24607781777344065 -0.11502080374201278 0.9339210679079877 0.048609737236322004 -15.08696492801212 0.11110145032557062 -4.5677570718807035 1.5442218237141505 -14.093618906030429 67.34943930382941 23.35041237486219 9.16093077447164 5.511426622559803 3.127434947290816 60.19848207297629 16.513944628392675 -0.1752486935788718 -2.6685495252046425 4.534603671619861 -0.12903876855966426 -1.563642186808373 -0.02119722180146381 0.013941272501010836 -56.26310657823924 0.01913188232201717 -0.011189509998689312 -56.22342723601321 -38.77515694241998 -0.04093030428437626 -0.04218230084703437 0.02403856176974868 0.03318133600675257 -0.023150927165920713 -0.04164411972030038 -0.04047333208825906 -0.029199062931301006 -36.66887150616913 0.0365996317131974 0.01987410843712454 4.6684472632477936e-05 0.04961080955245583 -0.003489158753200561 0.045702548455399214 0.04170051135352501 -0.02779145807377251 -19.801832617019983 0.023159778267140968 0.04125986119485609 -0.008055136036716704 0.03059530020396089 0.01238791738571012 -0.041250381145239275 0.002388180837953667 -0.017890475756756726 24.079128013940498 -0.02677491932378816 0.03785882914990912 28.87589486371758 0.0023055749918825226 -0.024895738698887736 28.847607169352113 -0.004040592920849602 -0.026848058268164294 5.92084699745855 1.3367826499921405 12.768403133155571 -71.08251490254247 28.22419671239963 -10.809028152336738 -43.58085402524569 3.817985675888637 -80.00607725567494 -7.530400721309019 -0.2866921057428417 -0.23850504009399068 -0.4440363755996244 0.07486719027793229 -8.154750275263904 -0.044056762591091314 0.01702271708837729 44.57482277503799 0.049341874174736955 -0.04066619641970621 44.538513896919156 12.449843189164648 -0.04799293972954626 -0.02493348557433233 0.02601205795233717 0.011521625748830018 -0.042920532262294184 0.009417483040437392 0.010216881100495019 0.004590855943490288 11.122219542734472 -0.030462043563593003 0.041364457431850264 -0.01799263528056244 -0.01826744539732491 0.0174563050670253 -0.04948127575229731 -0.044501014736981086 -0.023636789158241064 4.7270775730100825 0.046817182955284566 -0.014807751502547352 -0.011199797732733639 -0.02896338974067486 -0.03970033416931069 0.02367156371198116 -0.01794900885173216 -0.0030015852975732484 -5.562123754615448 0.025040956469370393 -0.04370714460581826 -6.675698651364826 -0.01937000486930541 0.019104812478453668 -6.767728827353331 6.849972214286384e-05 -0.022166702878302223 0.02062734263852277 -0.04965046826239901 0.012291094373662463 8.06600705233274 3.5016842982007192 -19.222324029376043 -0.0017558788054634674 10.399768239298218 0.022498922018706215 -5.592877530857974 -15.651316641902019 3.235516750414348 0.025998814884055955 -0.02201451661559131 -0.04028692977910777 -0.007190208795796044 4.653593223694128 -0.03384439620207975 12.459542268853738 -8.252324922938044 6.910840464320925 -0.025148258367689767 46.41241886475522 -0.016491352487916118 -4.315584155416748 -14.752466764331503 -3.8343041036465695 0.041345590248755046 0.016633273577895867 0.041155293933248294 0.035856552178528 -10.762532219974124 0.0003371211113732274 
0.024634107399212755 -0.0309960324223447 0.010692802298176322 -0.030813150425044778 -0.0026151740200419504 -0.019676037539272412 -3.1982496156395124 -0.22234269518181152 -0.7266167245330623 -1.0877527921766577 3.7708961156940726 0.3480953385613115 -1.223843995167335 -1.896707737013509 -1.2439068712138506 -0.10278015997179632 0.4445907579677539 -0.8988918464388171 -0.3912439945863686 12.402529238820915 1.4848423982418772 0.20870676786712833 -0.2323546283564374 2.048509248214981 -0.13419966287231305 -15.221622893575612 0.18841364346713316 -4.0794939972658275 1.47411025762694 -14.28511855212818 70.22079840201211 25.10072889919691 5.956049270131695 4.845419633120516 3.6916355032229067 56.225726912819155 18.081637270231443 -0.19611459349324184 -3.143804048526801 4.481230811794396 -0.13081886334238335 -1.5729828881426366 0.03274900250049864 0.01646832993945969 -56.22795309220261 -0.030275160780293194 -0.014580952391137892 -56.21266945934011 -38.750851963397224 0.02415769945566617 0.033361676145072974 -0.005607370531186842 0.02184620915578586 -0.030982755578749153 0.026096559721738258 -0.0014762264001025576 -0.01914232951575598 -36.67317056542258 0.03694053156404941 0.019345785851939662 -0.013200819251469579 0.049517713682143104 -0.048394333930039994 0.042938792469031144 0.019173659014163666 0.0006870845557807297 -19.741488046332485 -0.015969710719609346 0.040576357259824065 0.0031971195309069803 0.04472826881973929 0.030857296274344442 -0.028330677249344717 -0.04826174428493583 -0.016774958757000934 24.0334803741859 0.030666583890541263 -0.04716259187423023 28.886175900318616 -0.047215960750075885 -0.00531808138738778 28.869256734461963 0.03425410372981855 -0.009404066159178747 6.10511681475651 1.3120949996606557 12.848812997683009 -71.63447682273828 28.054809491952646 -10.61907535232559 -42.615055399944985 4.640735436712201 -79.20823378337525 -9.528330712412524 -1.5044907467853457 0.5335984005513409 -0.43787614579200684 0.05635804049183285 -8.082299901546127 -0.035989192045983415 0.0003482608893360263 44.56347798312039 0.013281156443033116 -0.032085150761852456 44.60077416470388 12.422804219432255 -0.024250793426819045 0.015515159362291553 0.00013912567394579788 0.019407026693258108 -0.017393372311323346 -0.03447316437913132 0.02116005519712146 0.009562434786795592 11.122123757715281 0.04886482911586974 -0.01482660610232748 -0.006899274257874604 -0.02884735326384437 3.590600955370856e-05 0.003416926205862433 -0.02148345242777943 0.003993088145739404 4.784431436678923 0.04374580314522324 0.04148380664214878 0.036620801039806805 -0.0036003364077303343 -0.02698937019705773 -0.045582106535089845 -0.011373624202506588 -0.039813774312616665 -5.619232124768196 -0.009751469821931763 0.010986979737197235 -6.702559461753335 2.0806459425422405e-05 0.03311667163521319 -6.761235615296057 -0.017317983139442886 0.040751662864813555 0.01217393443464687 0.049535415726034135 0.02535491932914845 8.001826274227275 3.4771977899437765 -19.194041258347806 0.04065035751125257 10.406286332093904 0.029033446578207528 -5.666113997406402 -15.67143161603475 3.24002638525994 -0.04854637726739735 0.01805498577423072 0.005183743962187306 -0.01229163114442585 4.705409362725656 -0.03209801966103133 12.463397938692903 -8.213060135289561 6.905237331442626 -0.0004672427379048063 46.40330532136526 0.034100322966832436 -4.338373476424582 -14.774733552895295 -3.821265707178168 0.04047552635774241 0.008232746016381205 0.030495889520235336 -0.03930561037274945 -10.771632946310305 -0.04800158093240709 
